<svg id="Capa_1" enable-background="new 0 0 512 512" height="512" viewBox="0 0 512 512" width="512" xmlns="http://www.w3.org/2000/svg"><g><path d="m7.5 246.939h66.85c2.173 0 4.239-.942 5.664-2.584 1.424-1.641 2.067-3.819 1.761-5.971-.337-2.375-.508-4.81-.508-7.233 0-27.837 22.647-50.483 50.483-50.483s50.483 22.646 50.483 50.483c0 2.427-.171 4.859-.508 7.229-.306 2.152.336 4.331 1.761 5.973s3.491 2.584 5.665 2.584l50.284-.001c1.989 0 3.897-.79 5.303-2.197 1.407-1.406 2.197-3.313 2.197-5.303l-.003-74.55c-.001-3.457 1.922-6.566 5.012-8.11 3.096-1.547 6.735-1.217 9.501.862 5.63 4.228 12.341 6.462 19.406 6.462 17.838 0 32.35-14.512 32.35-32.35s-14.513-32.35-32.351-32.35c-7.067 0-13.777 2.234-19.405 6.462-2.767 2.078-6.407 2.41-9.498.864-3.094-1.546-5.016-4.654-5.016-8.112v-91.114c0-4.143-3.358-7.5-7.5-7.5h-215.364c-13.271 0-24.067 10.796-24.067 24.066v19.7c0 4.143 3.358 7.5 7.5 7.5s7.5-3.357 7.5-7.5v-19.7c0-4.999 4.067-9.066 9.067-9.066h207.865v83.614c0 9.178 5.101 17.428 13.312 21.53 8.209 4.104 17.87 3.226 25.21-2.288 3.01-2.261 6.604-3.456 10.396-3.456 9.567 0 17.35 7.783 17.35 17.35s-7.783 17.35-17.35 17.35c-3.791 0-7.387-1.195-10.398-3.456-7.337-5.511-16.995-6.389-25.211-2.288-8.21 4.104-13.31 12.355-13.31 21.531l.002 67.049-34.705.001c.003-.262.005-.524.005-.786 0-36.107-29.376-65.483-65.483-65.483-36.108 0-65.483 29.376-65.483 65.483 0 .263.001.525.005.788h-51.272v-158.172c0-4.143-3.358-7.5-7.5-7.5s-7.5 3.357-7.5 7.5v165.672c0 4.142 3.358 7.5 7.5 7.5z"/><path d="m48.133 90.333v-41.419c0-.432.352-.783.783-.783h41.417c4.142 0 7.5-3.358 7.5-7.5 0-4.143-3.358-7.5-7.5-7.5h-41.416c-8.703 0-15.783 7.08-15.783 15.783v41.419c0 4.143 3.358 7.5 7.5 7.5s7.499-3.357 7.499-7.5z"/><path d="m463.085 33.132h-41.419c-4.142 0-7.5 3.357-7.5 7.5s3.358 7.5 7.5 7.5h41.419c.432 0 .783.352.783.783v41.417c0 4.143 3.358 7.5 7.5 7.5s7.5-3.357 7.5-7.5v-41.417c0-8.703-7.081-15.783-15.783-15.783z"/><path d="m478.868 463.085v-41.42c0-4.143-3.358-7.5-7.5-7.5s-7.5 3.357-7.5 7.5v41.42c0 .432-.352.783-.783.783h-41.417c-4.142 0-7.5 3.357-7.5 7.5s3.358 7.5 7.5 7.5h41.417c8.702 0 15.783-7.08 15.783-15.783z"/><path d="m90.336 463.867h-41.419c-.432 0-.783-.352-.783-.784v-41.416c0-4.143-3.358-7.5-7.5-7.5s-7.5 3.357-7.5 7.5v41.416c0 8.703 7.081 15.784 15.783 15.784h41.419c4.142 0 7.5-3.357 7.5-7.5 0-4.142-3.358-7.5-7.5-7.5z"/><path d="m487.933 0h-215.368c-4.142 0-7.5 3.357-7.5 7.5v66.849c0 2.173.942 4.239 2.584 5.664 1.641 1.424 3.818 2.064 5.971 1.762 2.371-.337 4.803-.508 7.23-.508 27.836 0 50.483 22.646 50.483 50.483s-22.647 50.483-50.483 50.483c-2.421 0-4.854-.171-7.231-.508-2.151-.303-4.33.338-5.97 1.763-1.641 1.425-2.583 3.49-2.583 5.663l.002 50.283c0 4.143 3.358 7.5 7.5 7.5l74.546-.001c3.458 0 6.566 1.922 8.111 5.015 1.545 3.094 1.215 6.732-.861 9.496-4.229 5.629-6.464 12.34-6.464 19.405 0 17.838 14.512 32.351 32.35 32.351s32.35-14.513 32.35-32.351c0-7.065-2.235-13.775-6.463-19.404-2.076-2.765-2.406-6.403-.86-9.496 1.545-3.093 4.653-5.015 8.11-5.015h91.113c4.142 0 7.5-3.357 7.5-7.5v-215.368c0-13.27-10.796-24.066-24.067-24.066zm9.067 231.935h-83.613c-9.179 0-17.428 5.101-21.529 13.311-4.103 8.211-3.227 17.87 2.285 25.208 2.261 3.011 3.457 6.607 3.457 10.397 0 9.567-7.783 17.351-17.35 17.351s-17.35-7.783-17.35-17.351c0-3.79 1.195-7.386 3.457-10.397 5.512-7.338 6.388-16.997 2.287-25.208-4.102-8.211-12.352-13.312-21.53-13.312l-67.046.001-.002-34.706c36.482.4 66.268-29.109 66.268-65.479 0-36.107-29.375-65.483-65.483-65.483-.262 0-.523.002-.785.005v-51.272h207.868c4.999 0 9.067 4.067 9.067 9.066v207.869z"/><path d="m244.351 431.988c-1.641-1.426-3.818-2.067-5.97-1.763-2.377.337-4.81.508-7.231.508-27.836 0-50.483-22.646-50.483-50.483s22.647-50.483 50.483-50.483c2.422 0 4.857.171 7.235.508 2.155.31 4.329-.338 5.97-1.763s2.583-3.49 2.583-5.663l-.002-50.28c0-4.143-3.358-7.5-7.5-7.5l-74.551.001c-3.458 0-6.566-1.922-8.112-5.016-1.545-3.093-1.215-6.731.863-9.496 4.229-5.631 6.464-12.342 6.464-19.407 0-17.838-14.512-32.351-32.35-32.351s-32.35 14.512-32.35 32.35c0 7.065 2.236 13.777 6.467 19.41 2.077 2.764 2.407 6.402.862 9.495-1.545 3.094-4.653 5.016-8.111 5.016h-91.118c-4.142 0-7.5 3.357-7.5 7.5v215.362c0 13.271 10.796 24.067 24.067 24.067h215.367c4.142 0 7.5-3.357 7.5-7.5v-66.849c0-2.173-.943-4.239-2.583-5.663zm-12.417 65.012h-207.867c-5 0-9.067-4.067-9.067-9.066v-207.863h83.617c9.179 0 17.429-5.102 21.53-13.312 4.102-8.212 3.225-17.871-2.289-25.208-2.263-3.014-3.459-6.609-3.459-10.4 0-9.567 7.783-17.351 17.35-17.351s17.35 7.783 17.35 17.351c0 3.791-1.196 7.387-3.457 10.397-5.515 7.339-6.392 16.999-2.289 25.21 4.102 8.211 12.352 13.311 21.53 13.311l67.051-.001.001 34.703c-.262-.003-.525-.005-.787-.005-36.107 0-65.483 29.376-65.483 65.483s29.376 65.483 65.483 65.483c.261 0 .522-.002.784-.005v51.273z"/><path d="m504.5 265.067h-66.849c-2.173 0-4.24.942-5.664 2.584-1.424 1.641-2.067 3.819-1.761 5.971.337 2.372.508 4.804.508 7.228 0 27.837-22.647 50.483-50.483 50.483s-50.483-22.647-50.483-50.483c0-2.424.171-4.856.508-7.229.306-2.151-.337-4.33-1.761-5.971-1.425-1.642-3.491-2.584-5.664-2.584l-50.28.001c-1.989 0-3.897.79-5.303 2.197-1.407 1.406-2.197 3.314-2.197 5.303l.003 74.55c0 3.458-1.922 6.567-5.016 8.112s-6.733 1.213-9.499-.864c-5.629-4.229-12.34-6.465-19.408-6.465-17.838 0-32.35 14.512-32.35 32.35s14.512 32.35 32.35 32.35c7.065 0 13.775-2.234 19.405-6.462 2.766-2.077 6.404-2.407 9.498-.861 3.093 1.545 5.014 4.652 5.014 8.11v91.113c0 4.143 3.358 7.5 7.5 7.5h169.432c4.142 0 7.5-3.357 7.5-7.5s-3.358-7.5-7.5-7.5h-161.933v-83.613c0-9.179-5.101-17.429-13.311-21.529-8.21-4.102-17.87-3.227-25.21 2.286-3.011 2.261-6.606 3.456-10.397 3.456-9.567 0-17.35-7.783-17.35-17.35s7.783-17.35 17.35-17.35c3.792 0 7.387 1.195 10.397 3.457 7.339 5.516 17.001 6.394 25.211 2.291 8.212-4.102 13.313-12.353 13.313-21.531l-.003-67.05 34.702-.001c-.003.262-.004.522-.004.783 0 36.107 29.376 65.483 65.483 65.483 36.108 0 65.483-29.376 65.483-65.483 0-.261-.001-.522-.004-.782h51.273v207.866c0 4.999-4.067 9.066-9.067 9.066h-16.565c-4.142 0-7.5 3.357-7.5 7.5s3.358 7.5 7.5 7.5h16.565c13.27 0 24.067-10.796 24.067-24.066v-215.366c0-4.142-3.358-7.5-7.5-7.5z"/></g></svg>