<svg width="25" height="25" viewBox="0 0 25 25" fill="none" xmlns="http://www.w3.org/2000/svg">
<path d="M12.5 0C5.62992 0 0 5.67875 0 12.5488C0 19.379 5.57861 25 12.5 25C19.4128 25 25 19.3874 25 12.5488C25 5.67875 19.3701 0 12.5 0ZM14.6973 23.3154C13.9942 23.4619 13.2471 23.5352 12.5 23.5352C11.7529 23.5352 11.0058 23.4619 10.3027 23.3154V19.8877C10.3027 19.0674 10.5225 18.7744 10.8154 18.3788C10.9646 18.2083 11.0546 18.0553 11.7235 17.046L10.5957 16.8701C7.6952 16.4454 6.5527 14.9364 6.09856 13.7646C5.51262 12.1973 5.82027 10.2343 6.87504 8.98933C7.03621 8.79879 7.16801 8.47645 7.0509 8.13961C6.83098 7.46574 6.86035 6.39648 7.00684 5.98621C7.78351 6.09722 8.58212 6.65359 9.24816 7.05566C9.55505 7.23476 9.71603 7.18746 9.86328 7.20215C10.3985 7.09076 11.2333 6.82125 12.5147 6.82125C13.3057 6.82125 14.1407 6.93836 14.9611 7.17278C15.1077 7.16934 15.3435 7.29408 15.752 7.05566C16.4482 6.63147 17.2197 6.09417 17.9932 5.98621C18.1396 6.39648 18.169 7.46574 17.9493 8.13961C17.832 8.47645 17.9638 8.79879 18.1252 8.98933C19.1797 10.2345 19.4874 12.1973 18.9014 13.7646C18.4473 14.9364 17.3048 16.4454 14.4043 16.8701L13.2765 17.046C13.9679 18.0893 14.0408 18.2144 14.1848 18.3788C14.4775 18.7744 14.6973 19.0674 14.6973 19.8877V23.3154ZM16.1621 22.8907V19.8877C16.1621 19.0527 15.9863 18.4961 15.7518 18.0859C17.9785 17.4854 19.5606 16.1669 20.2637 14.2773C21.0108 12.2852 20.6739 9.91211 19.4286 8.27141C19.6486 7.29008 19.6486 5.72262 19.1212 4.9902C18.8868 4.66805 18.5644 4.49219 18.1543 4.49219C18.1396 4.49219 18.1396 4.49219 18.1396 4.49219C17.0038 4.5536 16.1098 5.12562 15.1514 5.70793C14.2725 5.47352 13.3789 5.35641 12.4853 5.35641C11.5772 5.35641 10.6689 5.4882 9.86347 5.70793C8.85448 5.09949 7.96909 4.55208 6.8018 4.49219C6.43559 4.49219 6.11324 4.66805 5.87883 4.9902C5.35164 5.72262 5.35164 7.29008 5.57137 8.27141C4.32606 9.91211 3.98922 12.2997 4.73633 14.2773C5.43938 16.1669 7.02152 17.4854 9.24816 18.0859C9.06639 18.4038 8.92258 18.8141 8.86593 19.3693C8.41618 19.5244 8.02612 19.5749 7.66335 19.4683C7.28073 19.3552 6.98261 19.0998 6.72359 18.6642C6.14185 17.6868 5.15099 16.889 4.02279 16.9928L4.15154 18.4519C4.67396 18.404 5.1939 18.9568 5.46398 19.4124C5.90954 20.1628 6.50978 20.6549 7.2485 20.8731C7.79686 21.0346 8.29811 21.0308 8.83789 20.9156V22.8907C4.57516 21.3964 1.46484 17.3243 1.46484 12.5488C1.46484 6.48441 6.43559 1.46484 12.5 1.46484C18.5644 1.46484 23.5352 6.48441 23.5352 12.5488C23.5352 17.3243 20.4248 21.3964 16.1621 22.8907Z" fill="black"/>
</svg>
