<svg width="26" height="25" viewBox="0 0 26 25" fill="none" xmlns="http://www.w3.org/2000/svg">
<path d="M22.1914 0H3.80859C1.70851 0 0 1.6428 0 3.66211V21.3379C0 23.3572 1.70851 25 3.80859 25H22.1914C24.2915 25 26 23.3572 26 21.3379V3.66211C26 1.6428 24.2915 0 22.1914 0ZM24.4766 21.3379C24.4766 22.5494 23.4514 23.5352 22.1914 23.5352H3.80859C2.54858 23.5352 1.52344 22.5494 1.52344 21.3379V3.66211C1.52344 2.45056 2.54858 1.46484 3.80859 1.46484H22.1914C23.4514 1.46484 24.4766 2.45056 24.4766 3.66211V21.3379Z" fill="black"/>
<path d="M4.62109 20.6055H9.19141V10.2539H4.62109V20.6055ZM6.14453 11.7188H7.66797V19.1406H6.14453V11.7188Z" fill="black"/>
<path d="M16.813 10.2539C16.8116 10.2539 16.81 10.2539 16.8086 10.2539C16.2819 10.2539 15.769 10.3386 15.2852 10.503V10.2539H10.7148V20.6055H15.2852V15.3809C15.2852 14.9771 15.6269 14.6484 16.0469 14.6484C16.4668 14.6484 16.8086 14.9771 16.8086 15.3809V20.6055H21.3789V14.8773C21.3789 12.5069 19.379 10.2562 16.813 10.2539ZM19.8555 19.1406H18.332V15.3809C18.332 14.1693 17.3069 13.1836 16.0469 13.1836C14.7869 13.1836 13.7619 14.1693 13.7617 15.3807V19.1406H12.2383V11.7188H13.7617V13.1845L14.9809 12.3041C15.5111 11.9211 16.1431 11.7188 16.8086 11.7188H16.8116C18.433 11.7203 19.8555 13.1962 19.8555 14.8773V19.1406Z" fill="black"/>
<path d="M4.62109 8.78906H9.19141V4.39453H4.62109V8.78906ZM6.14453 5.85938H7.66797V7.32422H6.14453V5.85938Z" fill="black"/>
</svg>
