<svg id="Capa_1" enable-background="new 0 0 512 512" height="512" viewBox="0 0 512 512" width="512" xmlns="http://www.w3.org/2000/svg"><g><path d="m71.858 418.114 48.142 24.067v59.819c0 5.523 4.478 10 10 10h106c5.522 0 10-4.477 10-10v-136.55c0-30.637-22.983-56.045-53.391-59.093-.118-.033-42.3-6.618-61.87-26.189l-22.458-22.448c-7.556-7.558-17.6-11.72-28.281-11.72v-80c0-22.056-17.944-40-40-40s-40 17.944-40 40v135.84c0 49.212 27.798 94.239 71.858 116.274zm-51.858-252.114c0-11.028 8.972-20 20-20s20 8.972 20 20v85.361c-12.196 7.052-20 20.2-20 34.639 0 10.68 4.162 20.723 11.719 28.28l51.21 51.22c3.903 3.905 10.236 3.907 14.142.001 3.905-3.905 3.906-10.236.001-14.142l-51.21-51.221c-3.78-3.779-5.862-8.8-5.862-14.138 0-8.464 5.357-16.044 13.332-18.861.003-.001.006-.003.009-.004h.001c6.896-2.444 15.077-.994 20.799 4.728l22.458 22.449c23.186 23.185 73.843 31.91 73.944 31.938 20.214 2.026 35.457 18.879 35.457 39.2v126.55h-86v-56c0-3.788-2.141-7.251-5.528-8.944l-53.669-26.83c-37.504-18.757-60.803-56.456-60.803-98.386z"/><path d="m136 246h240c5.522 0 10-4.477 10-10v-226c0-5.523-4.478-10-10-10h-240c-5.522 0-10 4.477-10 10v226c0 5.523 4.478 10 10 10zm90-226h60v53.893l-25.975-12.855c-2.82-1.397-6.136-1.382-8.944.037l-25.081 12.67zm-80 0h60v70c0 3.473 1.802 6.698 4.761 8.518 2.957 1.819 6.649 1.974 9.748.408l35.127-17.745 35.929 17.782c3.046 1.508 6.722 1.389 9.71-.467 2.938-1.825 4.725-5.038 4.725-8.496v-70h60v206h-220z"/><path d="m336 176h-60c-5.522 0-10 4.477-10 10s4.478 10 10 10h60c5.522 0 10-4.477 10-10s-4.478-10-10-10z"/><circle cx="459" cy="394" r="10"/><path d="m472 126c-22.056 0-40 17.944-40 40v80c-10.681 0-20.725 4.162-28.279 11.717l-22.462 22.452c-12.3 12.301-43.459 24.337-61.128 26.108l-.668.072c-30.48 3.056-53.463 28.464-53.463 59.101v136.55c0 5.523 4.478 10 10 10h106c5.522 0 10-4.477 10-10v-59.819l32.73-16.362c4.939-2.47 6.942-8.476 4.473-13.417-2.469-4.938-8.474-6.942-13.416-4.473l-38.259 19.125c-3.387 1.695-5.528 5.158-5.528 8.946v56h-86v-126.55c0-20.321 15.243-37.174 35.529-39.208l.669-.072c21.691-2.175 57.605-16.262 73.201-31.857l22.462-22.452c5.724-5.724 13.913-7.166 20.797-4.726h.001c.003.001.006.003.009.004 13.771 4.865 17.917 22.551 7.471 33.001l-51.21 51.22c-3.905 3.906-3.904 10.237.001 14.142 3.904 3.904 10.237 3.905 14.142-.001l51.21-51.22c18.487-18.49 14.636-49.669-8.281-62.92v-85.361c0-11.028 8.972-20 20-20s20 8.972 20 20v135.84c0 18.296-4.617 36.46-13.353 52.528-2.639 4.852-.844 10.924 4.009 13.562 4.851 2.636 10.924.843 13.562-4.009 10.324-18.99 15.781-40.458 15.781-62.081v-135.84c0-22.056-17.944-40-40-40z"/></g></svg>