<svg width="42" height="42" viewBox="0 0 42 42" fill="none" xmlns="http://www.w3.org/2000/svg">
<path d="M6.15234 36.9961H35.8477C39.2401 36.9961 42 34.2362 42 30.8438V11.1562C42 7.76381 39.2401 5.00391 35.8477 5.00391H6.15234C2.7599 5.00391 0 7.76381 0 11.1562V30.8438C0 34.2362 2.7599 36.9961 6.15234 36.9961ZM2.46094 11.1562C2.46094 9.12085 4.11694 7.46484 6.15234 7.46484H35.8477C37.8831 7.46484 39.5391 9.12085 39.5391 11.1562V30.8438C39.5391 32.8792 37.8831 34.5352 35.8477 34.5352H6.15234C4.11694 34.5352 2.46094 32.8792 2.46094 30.8438V11.1562Z" fill="black"/>
<path d="M14.8477 12.7565V29.4825L29.6543 20.9823L14.8477 12.7565ZM17.3086 16.9388L24.6504 21.0176L17.3086 25.2323V16.9388Z" fill="black"/>
</svg>
